# xmcd
# 
# Track frame offsets:
#     150
#     19442
#     37532
#     54272
#     72367
#     96530
#     116232
#     136145
#     155602
#     172950
# 
# Disc length: 2493
# 
# Revision: 17
# Processed by: cddbd v1.5.2PL0 Copyright (c) Steve Scherf et al.
# Submitted via: fre:ac v1.0.31
# 
DISCID=8209bb0a
DTITLE=Janis Joplin - Anthology Disc 1
DYEAR=1980
DGENRE=Rock/Pop
TTITLE0=Piece Of My Heart
TTITLE1=Summertime
TTITLE2=Maybe
TTITLE3=Try (Just A Little Bit Harder)
TTITLE4=To Love Somebody
TTITLE5=Kozmic Blues
TTITLE6=Turtle Blues
TTITLE7=Oh, Sweet Mary
TTITLE8=Little Girl Blue
TTITLE9=Trust Me
EXTD=YEAR: 1980
EXTT0=
EXTT1=
EXTT2=
EXTT3=
EXTT4=
EXTT5=
EXTT6=
EXTT7=
EXTT8=
EXTT9=
PLAYORDER=
